<svg width="397" height="430" viewBox="0 0 397 430" fill="none" xmlns="http://www.w3.org/2000/svg">
<path d="M3.8147e-06 0.00012207L171.52 1.02414C212.821 2.38948 250.709 12.8001 285.184 32.2561C319.659 51.7121 346.795 77.6535 366.592 110.08C386.731 142.165 396.8 176.981 396.8 214.528C396.8 252.757 386.731 288.085 366.592 320.512C346.795 352.597 319.659 378.368 285.184 397.824C250.709 417.28 212.651 427.691 171.008 429.056H3.8147e-06V0.00012207ZM169.984 384C202.752 382.976 232.619 374.784 259.584 359.424C286.549 343.723 307.712 323.243 323.072 297.984C338.773 272.384 346.624 244.565 346.624 214.528C346.624 184.832 338.773 157.355 323.072 132.096C307.712 106.496 286.379 86.0161 259.072 70.6561C232.107 54.9548 202.411 46.5921 169.984 45.5681H49.664V384H169.984Z" fill="#409E99"/>
</svg>
