<svg width="2256" height="454" viewBox="0 0 2256 454" fill="none" xmlns="http://www.w3.org/2000/svg">
<path d="M3.8147e-06 12.7999L171.52 13.8239C212.821 15.1893 250.709 25.5999 285.184 45.0559C319.659 64.5119 346.795 90.4533 366.592 122.88C386.731 154.965 396.8 189.781 396.8 227.328C396.8 265.557 386.731 300.885 366.592 333.312C346.795 365.397 319.659 391.168 285.184 410.624C250.709 430.08 212.651 440.491 171.008 441.856H3.8147e-06V12.7999ZM169.984 396.8C202.752 395.776 232.619 387.584 259.584 372.224C286.549 356.523 307.712 336.043 323.072 310.784C338.773 285.184 346.624 257.365 346.624 227.328C346.624 197.632 338.773 170.155 323.072 144.896C307.712 119.296 286.379 98.8159 259.072 83.4559C232.107 67.7546 202.411 59.3919 169.984 58.368H49.664V396.8H169.984ZM537.92 13.8239H833.344V58.368H587.072V396.288H833.344V441.344H537.92V13.8239ZM1191.29 453.632C1146.23 453.632 1104.59 443.563 1066.36 423.424C1028.47 402.944 998.264 375.296 975.736 340.48C953.549 305.664 942.456 267.776 942.456 226.816C942.456 185.856 953.549 147.968 975.736 113.152C998.264 78.3359 1028.47 50.8586 1066.36 30.7199C1104.59 10.2399 1146.23 -6.10352e-05 1191.29 -6.10352e-05C1214.5 -6.10352e-05 1237.37 3.07194 1259.9 9.21594C1282.42 15.0186 1303.76 23.7226 1323.9 35.3279L1297.27 73.2159C1265.53 54.7839 1230.2 45.5679 1191.29 45.5679C1155.11 45.5679 1121.66 53.7599 1090.94 70.144C1060.56 86.1866 1036.32 108.203 1018.23 136.192C1000.48 163.84 991.608 194.048 991.608 226.816C991.608 259.584 1000.48 289.963 1018.23 317.952C1036.32 345.6 1060.56 367.616 1090.94 384C1121.66 400.043 1155.11 408.064 1191.29 408.064C1230.2 408.064 1265.53 398.848 1297.27 380.416L1323.9 418.304C1303.76 429.909 1282.42 438.613 1259.9 444.416C1237.37 450.56 1214.5 453.632 1191.29 453.632ZM1470.26 13.8239H1519.41V221.696L1759.54 12.7999H1831.22L1632.56 186.368L1825.59 441.856H1765.17L1596.21 217.6L1519.41 284.16V441.856H1470.26V13.8239ZM1960.18 13.8239H2255.6V58.368H2009.33V396.288H2255.6V441.344H1960.18V13.8239Z" fill="#409E99"/>
</svg>
